#!OML:ASF F:\VICON\USERDATA\Patient Classification 1\PLAYGROUND\JustinFriday\JustinFriday.ASF
:FULLY-SPECIFIED
:DEGREES
4973
root 27.9591 17.7787 37.8518 0.529815 -179.964 0.704576
lowerback 8.81607 9.82788 -0.798634
upperback -0.583723 12.8194 -2.18525
thorax -5.13426 6.29406 -3.47593
lowerneck 8.24638 -2.23166 17.3388
upperneck -9.79234 -1.36457 -2.94984
head -4.46244 -1.24237 -3.58914
rclavicle -6.26669e-014 -1.11319e-014
rhumerus -52.3082 -40.6266 -57.6489
rradius 26.8282
rwrist -6.21841
rhand -23.1547 333.268
rfingers 7.12502
rthumb 3.29369 -56.686
lclavicle -6.26669e-014 -1.11319e-014
lhumerus -32.7691 -30.5061 91.6813
lradius 54.4028
lwrist 6.15002
lhand -19.8415 -12.2007
lfingers 7.12502
lthumb 6.49279 17.6797
rfemur -29.1625 1.68766 15.2817
rtibia 22.3071
rfoot 18.5478 10.766
rtoes 64.5313
lfemur 15.7235 -3.02015 -26.8138
ltibia 10.2385
lfoot -7.44205 -2.83933
ltoes -2.00062
4974
root 27.9734 17.7809 37.6978 0.341912 -179.504 0.848802
lowerback 9.31186 10.0035 -0.532125
upperback -0.890087 13.0747 -2.2278
thorax -5.65257 6.39866 -3.81865
lowerneck 7.76959 -2.47869 17.9863
upperneck -8.42498 -1.7533 -3.26261
head -4.00687 -1.36222 -3.75967
rclavicle -1.04362e-013 4.29375e-014
rhumerus -53.2549 -40.8998 -56.6318
rradius 26.9806
rwrist -5.97841
rhand -22.916 334.041
rfingers 7.12502
rthumb 3.52422 -55.91
lclavicle -1.04362e-013 4.29375e-014
lhumerus -33.2852 -31.0387 91.9574
lradius 53.8671
lwrist 6.65163
lhand -20.1586 -12.158
lfingers 7.12502
lthumb 6.18666 17.7316
rfemur -28.671 1.68082 15.5598
rtibia 22.8761
rfoot 19.2883 10.7086
rtoes 65.3423
lfemur 16.234 -3.35377 -26.6467
ltibia 10.649
lfoot -7.1126 -2.5202
ltoes -3.8567
4975
root 27.9855 17.7807 37.5435 0.280678 -179.009 0.723718
lowerback 9.64032 10.0965 -0.492769
upperback -1.15666 13.1873 -2.37034
thorax -6.06942 6.43634 -4.09588
lowerneck 7.74965 -2.37629 18.3863
upperneck -7.52153 -1.60298 -3.50745
head -3.7124 -1.23635 -3.90472
rclavicle 1.69166e-013 7.95139e-015
rhumerus -54.3814 -41.4956 -55.1434
rradius 26.9687
rwrist -4.83552
rhand -21.0296 335.912
rfingers 7.12502
rthumb 5.34574 -54.0007
lclavicle 1.69166e-013 7.95139e-015
lhumerus -33.6684 -31.154 91.9495
lradius 53.2397
lwrist 7.07861
lhand -19.8405 -12.4022
lfingers 7.12502
lthumb 6.49384 17.4782
rfemur -28.3215 1.02269 15.7295
rtibia 23.3008
rfoot 22.8819 9.95257
rtoes 66.1609
lfemur 16.3199 -3.66043 -26.7393
ltibia 11.4752
lfoot -6.79148 -2.35631
ltoes -5.47
4976
root 27.9932 17.7977 37.3814 0.234175 -178.24 0.726448
lowerback 10.1898 10.161 -0.209157
upperback -1.62086 13.2863 -2.58493
thorax -6.74936 6.44594 -4.63882
lowerneck 7.71945 -2.66257 19.4029
upperneck -6.96233 -1.94129 -4.33639
head -3.58872 -1.35649 -4.30212
rclavicle -3.36443e-014 2.3059e-014
rhumerus -55.0317 -41.1565 -55.1014
rradius 27.5651
rwrist -6.82678
rhand -22.3774 334.171
rfingers 7.12502
rthumb 4.04432 -55.7705
lclavicle -3.36443e-014 2.3059e-014
lhumerus -34.4568 -31.629 92.1176
lradius 52.5668
lwrist 7.22227
lhand -19.6598 -12.8391
lfingers 7.12502
lthumb 6.66827 17.0359
rfemur -27.7595 1.14827 15.6747
rtibia 23.5378
rfoot 21.2808 9.99988
rtoes 66.042
lfemur 15.8047 -4.42262 -26.697
ltibia 13.015
lfoot -6.40247 -2.2662
ltoes -5.96713
4977
root 27.9974 17.8299 37.2169 0.362536 -176.916 1.50409
lowerback 11.0651 10.1575 0.859402
upperback -2.57757 13.4422 -2.64094
thorax -8.00345 6.42329 -5.56167
lowerneck 7.82594 -3.1175 20.2137
upperneck -5.9991 -2.47796 -4.78806
head -3.3864 -1.56726 -4.53324
rclavicle 1.30726e-013 1.35174e-014
rhumerus -57.3692 -41.1756 -53.2805
rradius 27.9833
rwrist -7.7673
rhand -21.4367 335.972
rfingers 7.12502
rthumb 4.95271 -53.9496
lclavicle 1.30726e-013 1.35174e-014
lhumerus -36.0539 -32.7195 93.0052
lradius 51.8173
lwrist 7.16856
lhand -19.8672 -12.4578
lfingers 7.12502
lthumb 6.46799 17.4235
rfemur -27.1899 1.48627 16.2171
rtibia 23.6818
rfoot 20.4015 8.28679
rtoes 66.0313
lfemur 15.1276 -5.59742 -25.7341
ltibia 14.8118
lfoot -6.26301 -2.21659
ltoes -7.46441
4978
root 28.0223 17.8366 37.0791 0.186654 -177.507 2.30787
lowerback 10.4265 10.4176 1.39979
upperback -2.0714 13.9088 -2.18132
thorax -7.04965 6.69717 -5.22011
lowerneck 7.39509 -2.7961 20.1911
upperneck -5.85404 -2.16206 -5.15134
head -3.23593 -1.38543 -4.66962
rclavicle -9.85475e-014 -4.77083e-015
rhumerus -56.1323 -41.5649 -53.4475
rradius 28.1655
rwrist -7.67991
rhand -21.2471 336.077
rfingers 7.12502
rthumb 5.13578 -53.8412
lclavicle -9.85475e-014 -4.77083e-015
lhumerus -35.0064 -32.083 92.6505
lradius 50.8199
lwrist 7.07506
lhand -20.2909 -12.0568
lfingers 7.12502
lthumb 6.05897 17.8366
rfemur -26.8437 2.4603 17.2255
rtibia 23.93
rfoot 21.2981 7.35099
rtoes 66.2764
lfemur 14.7684 -5.07614 -24.8416
ltibia 16.6526
lfoot -6.26518 -1.77196
ltoes -10.1346
4979
root 28.044 17.833 36.9469 0.324675 -179.094 2.34907
lowerback 8.3895 10.8413 0.785688
upperback -0.778938 14.4142 -1.58456
thorax -4.81043 7.07849 -3.77242
lowerneck 6.52435 -2.00065 19.6155
upperneck -5.94506 -1.35636 -5.61315
head -3.01859 -0.958027 -4.78028
rclavicle -8.25453e-014 -1.74931e-014
rhumerus -52.933 -41.9568 -54.5347
rradius 28.0913
rwrist -7.53647
rhand -21.2553 335.977
rfingers 7.12502
rthumb 5.12787 -53.9414
lclavicle -8.25453e-014 -1.74931e-014
lhumerus -32.6405 -30.2823 91.8817
lradius 49.617
lwrist 7.16601
lhand -20.5421 -12.4413
lfingers 7.12502
lthumb 5.81648 17.4589
rfemur -27.03 3.18877 17.6705
rtibia 24.1472
rfoot 25.8013 7.20022
rtoes 66.467
lfemur 13.8485 -3.84627 -24.8611
ltibia 18.8221
lfoot -6.12711 -1.18193
ltoes -12.5516
4980
root 28.0376 17.863 36.7646 -0.100169 -175.086 2.38785
lowerback 12.1642 10.1641 1.92673
upperback -3.11971 13.6683 -2.38631
thorax -9.01651 6.42759 -6.17685
lowerneck 6.7209 -2.77151 20.7563
upperneck -3.29337 -2.28022 -5.3173
head -2.36128 -1.32552 -4.80435
rclavicle -4.53229e-014 1.98785e-014
rhumerus -58.8008 -41.2762 -51.4736
rradius 29.0517
rwrist -8.62066
rhand -20.9169 336.101
rfingers 7.12502
rthumb 5.45456 -53.8089
lclavicle -4.53229e-014 1.98785e-014
lhumerus -36.9386 -32.6181 93.5238
lradius 48.8068
lwrist 7.63016
lhand -20.4381 -12.567
lfingers 7.12502
lthumb 5.91689 17.3303
rfemur -25.3768 2.05655 17.1502
rtibia 24.4154
rfoot 20.1734 5.64885
rtoes 66.4593
lfemur 13.3783 -6.75389 -24.3823
ltibia 21.1724
lfoot -5.69732 -2.25793
ltoes -14.2527
4981
root 28.0506 17.8942 36.6127 -0.311476 -173.506 2.88755
lowerback 13.5765 9.91314 2.81463
upperback -3.95782 13.5176 -2.54536
thorax -10.5297 6.18014 -7.18709
lowerneck 6.90632 -2.97385 21.447
upperneck -2.51513 -2.48166 -5.6969
head -2.18985 -1.38373 -5.0189
rclavicle -2.32799e-014 1.11319e-014
rhumerus -60.4155 -40.9226 -50.7975
rradius 29.4695
rwrist -9.2106
rhand -22.3978 334.372
rfingers 7.12502
rthumb 4.02461 -55.5696
lclavicle -2.32799e-014 1.11319e-014
lhumerus -38.3259 -33.3846 94.1066
lradius 47.5996
lwrist 7.84794
lhand -20.7767 -12.1367
lfingers 7.12502
lthumb 5.58996 17.7696
rfemur -24.5471 1.92109 17.5715
rtibia 24.7614
rfoot 18.6534 5.04439
rtoes 66.2331
lfemur 12.5936 -7.57411 -23.4497
ltibia 23.4375
lfoot -5.29045 -2.93093
ltoes -16.6187
